<svg width="7" height="12" viewBox="0 0 7 12" fill="none" xmlns="http://www.w3.org/2000/svg">
	<path
		d="M0.774167 11.4811C0.560841 11.4811 0.378481 11.4071 0.227089 11.2592C0.0756963 11.1112 0 10.9306 0 10.7172C0 10.5039 0.079137 10.3181 0.237411 10.1598L4.40759 5.99998L0.237411 1.84013C0.079137 1.68185 0 1.49605 0 1.28273C0 1.0694 0.0756963 0.888761 0.227089 0.740808C0.378481 0.592856 0.560841 0.518881 0.774167 0.518881C0.973729 0.518881 1.15265 0.591136 1.31092 0.735647L6.01785 5.42194C6.18301 5.57333 6.26559 5.76601 6.26559 5.99998C6.26559 6.22019 6.18301 6.41287 6.01785 6.57802L1.31092 11.2643C1.16641 11.4088 0.987492 11.4811 0.774167 11.4811Z"
		fill="#0066CC" />
</svg>
	