<svg width="14" height="15" viewBox="0 0 14 15" fill="none" xmlns="http://www.w3.org/2000/svg">
	<path
		d="M12.3071 2.86263H11.1967C11.0776 2.09693 10.6464 1.39357 9.98103 0.880049C9.3157 0.366528 8.46035 0.0768341 7.57003 0.0634766C6.6797 0.0768341 5.82436 0.366528 5.15903 0.880049C4.49371 1.39357 4.06244 2.09693 3.9434 2.86263H2.83353C2.22288 2.86298 1.63734 3.07357 1.20546 3.44816C0.773585 3.82276 0.530663 4.33075 0.530029 4.8606V12.145C0.530576 12.6748 0.773333 13.1828 1.20503 13.5575C1.63672 13.9321 2.22209 14.1429 2.83266 14.1435H12.3067C12.9174 14.143 13.503 13.9323 13.9348 13.5577C14.3666 13.183 14.6095 12.6749 14.61 12.145V4.8606C14.6094 4.33083 14.3665 3.82291 13.9348 3.44833C13.503 3.07375 12.9176 2.86311 12.3071 2.86263ZM7.57003 1.10164C8.1439 1.11247 8.69634 1.29289 9.136 1.6131C9.57567 1.9333 9.87623 2.3741 9.988 2.86263H5.15206C5.26383 2.3741 5.56439 1.9333 6.00406 1.6131C6.44372 1.29289 6.99615 1.11247 7.57003 1.10164ZM13.4131 12.145C13.4128 12.3996 13.2962 12.6436 13.0888 12.8236C12.8815 13.0036 12.6003 13.1049 12.307 13.1053H2.83299C2.53968 13.1049 2.25854 13.0036 2.0512 12.8235C1.84387 12.6435 1.72725 12.3995 1.72694 12.145V4.8606C1.72728 4.60614 1.84394 4.36218 2.05131 4.18225C2.25868 4.00232 2.53983 3.9011 2.8331 3.9008H12.3072C12.6004 3.90115 12.8815 4.00239 13.0888 4.18232C13.2962 4.36224 13.4128 4.60617 13.4131 4.8606V12.145Z"
		fill="#DADADA" />
</svg>
	