<svg width="15" height="15" viewBox="0 0 15 15" fill="none" xmlns="http://www.w3.org/2000/svg">
	<path
		d="M14.298 13.202L10.428 9.33195C11.129 8.40295 11.55 7.25095 11.55 5.99995C11.55 2.93995 9.06095 0.449951 5.99995 0.449951C2.93995 0.449951 0.449951 2.93995 0.449951 5.99995C0.449951 9.06095 2.93995 11.55 5.99995 11.55C7.25095 11.55 8.40295 11.129 9.33195 10.428L13.202 14.298C13.353 14.449 13.552 14.526 13.75 14.526C13.948 14.526 14.146 14.45 14.298 14.298C14.601 13.995 14.601 13.505 14.298 13.202ZM1.54995 5.99995C1.54995 3.54595 3.54695 1.54995 5.99995 1.54995C8.45395 1.54995 10.45 3.54695 10.45 5.99995C10.45 8.45295 8.45395 10.45 5.99995 10.45C3.54595 10.45 1.54995 8.45395 1.54995 5.99995Z"
		fill="#DADADA" />
</svg>
	